<?xml version="1.0" encoding="UTF-8" standalone="no"?>
<svg
   width="120mm"
   height="120mm"
   viewBox="44 90 122 122"
   version="1.1"
   xmlns="http://www.w3.org/2000/svg">
  <g id="openmacro-logo">
    <path
       id="gear-ring-with-teeth"
       style="fill:#2c2776"
       d="m 105.01752,95.61434 c -3.09404,0 -6.188082,0.3002 -9.282125,0.9002 l -1.477946,10.21385 c -4.913941,1.17829 -9.529298,3.13376 -13.706657,5.73608 l -8.317838,-6.21512 c -5.224175,3.5271 -9.59975,7.90268 -13.126848,13.12685 l 6.251298,8.36642 c -2.557664,4.1614 -4.470866,8.754 -5.622396,13.63637 L 49.3713,142.87864 c -1.20001,6.18809 -1.20001,12.37616 0,18.56424 l 10.415902,1.50741 c 1.168305,4.84469 3.091006,9.39913 5.64565,13.52785 l -6.326746,8.46719 c 3.527112,5.22415 7.902679,9.59973 13.126848,13.12684 l 8.475451,-6.33294 c 4.126104,2.54734 8.676989,4.46299 13.516488,5.62704 l 1.510502,10.44071 c 6.188085,1.20001 12.376165,1.20001 18.564245,0 l 1.50533,-10.40247 c 4.86696,-1.15178 9.44579,-3.06043 13.59555,-5.60999 l 8.40156,6.27765 c 5.22416,-3.52711 9.59974,-7.90267 13.12685,-13.12684 l -6.24097,-8.35247 c 2.59434,-4.16599 4.54515,-8.76751 5.72368,-13.66635 l 10.25209,-1.48363 c 1.2,-6.18808 1.2,-12.37615 0,-18.56424 l -10.19989,-1.47588 c -1.16147,-4.93656 -3.10366,-9.57563 -5.70095,-13.77435 l 6.16604,-8.25221 c -3.5271,-5.22418 -7.90269,-9.59975 -13.12685,-13.12685 l -8.24446,6.15983 c -4.20113,-2.60448 -8.84419,-4.55334 -13.78572,-5.71903 l -1.47226,-10.17561 c -3.09404,-0.6 -6.18808,-0.9002 -9.28212,-0.9002 z m -30.287044,17.43408 c 3.417128,3.41073 6.834045,6.8216 10.251053,10.23245 5.688282,-3.97445 12.616432,-6.30866 20.116081,-6.30866 7.44917,0 14.33461,2.3019 20.00085,6.22753 3.38966,-3.38378 6.77909,-6.76769 10.16889,-10.15132 v 21.05195 c 3.11639,5.24562 4.90823,11.3797 4.90823,17.95187 0,19.4423 -15.63568,35.07796 -35.07797,35.07796 -19.442283,0 -35.080025,-15.63566 -35.080025,-35.07796 0,-6.43091 1.719327,-12.44011 4.712891,-17.61029 v -20.11816 z" />
    <path
       id="lightning-m"
       style="fill:#fe7316"
       d="m 78.435676,121.97552 v 43.99629 l 10.302213,10.30221 v -28.86594 l 16.222261,16.22227 v 0.0786 l 0.0393,-0.0393 0.0393,0.0393 v -0.0786 l 16.22227,-16.22227 v 28.86594 l 10.30221,-10.30221 V 121.97552 L 105,148.5 Z" />
  </g>
</svg>
